<svg width="154" height="154" viewBox="0 0 154 154" fill="none" xmlns="http://www.w3.org/2000/svg">
<path d="M136.034 53.9002C139.242 56.3385 141.167 60.1243 141.167 64.1668V128.334C141.167 131.737 139.815 135.001 137.408 137.408C135.001 139.815 131.737 141.167 128.334 141.167H25.6668C22.2632 141.167 18.999 139.815 16.5923 137.408C14.1856 135.001 12.8335 131.737 12.8335 128.334V64.1668C12.8335 62.1745 13.2974 60.2096 14.1883 58.4276C15.0793 56.6456 16.373 55.0955 17.9668 53.9002L69.3002 15.4002C71.5216 13.7341 74.2234 12.8335 77.0002 12.8335C79.7769 12.8335 82.4788 13.7341 84.7002 15.4002L136.034 53.9002Z" stroke="white" stroke-width="12.8333" stroke-linecap="round" stroke-linejoin="round"/>
<path d="M141.167 64.1665L83.6093 100.742C81.6283 101.983 79.3379 102.641 77.0002 102.641C74.6625 102.641 72.372 101.983 70.391 100.742L12.8335 64.1665" stroke="white" stroke-width="12.8333" stroke-linecap="round" stroke-linejoin="round"/>
</svg>
